<svg xmlns="http://www.w3.org/2000/svg" viewBox="0 0 1120 820" role="img" lang="en" aria-labelledby="archify-diagram-title archify-diagram-description" data-preset="classic" data-quality-profile="showcase">
        <title id="archify-diagram-title">Как читать габарит поезда</title>
        <desc id="archify-diagram-description">A workflow diagram generated by Archify.</desc>
        <!-- Definitions -->
        <defs>
          <marker id="arrowhead" markerWidth="10" markerHeight="7" refX="9" refY="3.5" orient="auto">
            <polygon points="0 0, 10 3.5, 0 7" class="m-default" />
          </marker>
          <marker id="arrowhead-emphasis" markerWidth="10" markerHeight="7" refX="9" refY="3.5" orient="auto">
            <polygon points="0 0, 10 3.5, 0 7" class="m-emphasis" />
          </marker>
          <marker id="arrowhead-security" markerWidth="10" markerHeight="7" refX="9" refY="3.5" orient="auto">
            <polygon points="0 0, 10 3.5, 0 7" class="m-security" />
          </marker>
          <marker id="arrowhead-dashed" markerWidth="10" markerHeight="7" refX="9" refY="3.5" orient="auto">
            <polygon points="0 0, 10 3.5, 0 7" class="m-dashed" />
          </marker>
          <pattern id="grid" width="40" height="40" patternUnits="userSpaceOnUse">
            <path d="M 40 0 L 0 0 0 40" class="c-grid" stroke-width="0.5"/>
          </pattern>
        </defs>

        <!-- Background Grid -->
        <rect width="100%" height="100%" fill="url(#grid)" />

        <!-- Swimlanes -->
        <rect data-graph-role="structural-frame" data-composition-frame-kind="lane" data-composition-frame-id="lane-0" x="40" y="52" width="1055" height="104" rx="10" class="c-lane" stroke-width="1"/>
        <text x="54" y="74" class="t-dim" font-size="10" font-weight="600">01 / Координаты</text>

        <rect data-graph-role="structural-frame" data-composition-frame-kind="lane" data-composition-frame-id="lane-1" x="40" y="176" width="1055" height="104" rx="10" class="c-lane" stroke-width="1"/>
        <text x="54" y="198" class="t-dim" font-size="10" font-weight="600">02 / Путь</text>

        <rect data-graph-role="structural-frame" data-composition-frame-kind="lane" data-composition-frame-id="lane-2" x="40" y="300" width="1055" height="104" rx="10" class="c-lane" stroke-width="1"/>
        <text x="54" y="322" class="t-dim" font-size="10" font-weight="600">03 / Зоны</text>

        <rect data-graph-role="structural-frame" data-composition-frame-kind="lane" data-composition-frame-id="lane-3" x="40" y="424" width="1055" height="104" rx="10" class="c-lane" stroke-width="1"/>
        <text x="54" y="446" class="t-dim" font-size="10" font-weight="600">04 / Решение</text>

        <rect data-graph-role="structural-frame" data-composition-frame-kind="lane" data-composition-frame-id="lane-4" x="40" y="548" width="1055" height="104" rx="10" class="c-lane" stroke-width="1"/>
        <text x="54" y="570" class="t-dim" font-size="10" font-weight="600">05 / Ограничения</text>

        <!-- Phase headers -->
        <line x1="97" y1="35" x2="309" y2="35" class="a-default" stroke-width="1.1"/>
        <rect x="97" y="27" width="212" height="16" rx="4" class="c-mask"/>
        <text x="203" y="39" class="t-muted" font-size="8" font-weight="600" text-anchor="middle">Допущение</text>
        <line x1="405" y1="35" x2="617" y2="35" class="a-emphasis" stroke-width="1.1"/>
        <rect x="405" y="27" width="212" height="16" rx="4" class="c-mask"/>
        <text x="511" y="39" class="t-backend" font-size="8" font-weight="600" text-anchor="middle">Контур</text>
        <line x1="713" y1="35" x2="1028" y2="35" class="a-default" stroke-width="1.1"/>
        <rect x="713" y="27" width="315" height="16" rx="4" class="c-mask"/>
        <text x="870.5" y="39" class="t-muted" font-size="8" font-weight="600" text-anchor="middle">Интерпретация</text>

        <!-- Workflow groups -->


        <!-- Edge paths -->
        <path data-edge-from="calibration" data-edge-to="no_clear" data-edge-label="ограничивает вывод" data-edge-key="0" data-composition-points="143,641;143,657;982,657;982,641" d="M 143 641 L 143 657 L 982 657 L 982 641" class="a-security" stroke-width="1.4" marker-end="url(#arrowhead-security)"/>
        <path data-edge-from="inside" data-edge-to="rules" data-edge-key="1" data-composition-points="571,393;571,491;669,491" d="M 571 393 L 571 491 L 669 491" class="a-default" stroke-width="1.4" marker-end="url(#arrowhead)"/>
        <path data-edge-from="lidar" data-edge-to="calibration" data-edge-label="требует проверки" data-edge-key="2" data-composition-points="136,145;136,352;254,352;254,608;238,608" d="M 136 145 L 136 352 L 254 352 L 254 608 L 238 608" class="a-security" stroke-width="1.4" marker-end="url(#arrowhead-security)"/>
        <path data-edge-from="lidar" data-edge-to="rail_axis" data-edge-key="3" data-composition-points="228,119;263,119;263,217" d="M 228 119 L 263 119 L 263 217" class="a-default" stroke-width="1.4" marker-end="url(#arrowhead)"/>
        <path data-edge-from="no_clear" data-edge-to="outcome" data-edge-label="только candidate-only" data-edge-key="4" data-composition-points="982,589;982,517" d="M 982 589 L 982 517" class="a-dashed" stroke-width="1.4" marker-end="url(#arrowhead-dashed)"/>
        <path data-edge-from="rail_axis" data-edge-to="section" data-edge-key="5" data-composition-points="333,243;361,243" d="M 333 243 L 361 243" class="a-default" stroke-width="1.4" marker-end="url(#arrowhead)"/>
        <path data-edge-from="rules" data-edge-to="outcome" data-edge-key="6" data-composition-points="849,491;877,491" d="M 849 491 L 877 491" class="a-default" stroke-width="1.4" marker-end="url(#arrowhead)"/>
        <path data-edge-from="section" data-edge-to="inside" data-edge-label="опасная зона" data-edge-key="7" data-composition-points="451,269;451,290;571,290;571,341" d="M 451 269 L 451 290 L 571 290 L 571 341" class="a-default" stroke-width="1.4" marker-end="url(#arrowhead)"/>
        <path data-edge-from="section" data-edge-to="warning" data-edge-label="запас вокруг" data-edge-key="8" data-composition-points="541,243;759,243;759,341" d="M 541 243 L 759 243 L 759 341" class="a-default" stroke-width="1.4" marker-end="url(#arrowhead)"/>
        <path data-edge-from="warning" data-edge-to="rules" data-edge-key="9" data-composition-points="759,393;759,465" d="M 759 393 L 759 465" class="a-default" stroke-width="1.4" marker-end="url(#arrowhead)"/>

        <!-- Nodes -->
        <g id="node-lidar" data-node-id="lidar" data-node-label="Координаты лидара" tabindex="0" role="button" aria-label="Focus Координаты лидара, допущение, Координаты › Допущение" aria-pressed="false" data-node-kind="database" data-node-sublabel="допущение" data-node-context="Координаты › Допущение">
          <title>Координаты лидара · допущение · Координаты › Допущение</title>
          <rect x="58" y="93" width="170" height="52" rx="6" class="c-mask"/>
          <rect x="58" y="93" width="170" height="52" rx="6" class="c-database" stroke-width="1.5"/>
          <g aria-hidden="true" data-semantic-sigil="database" class="semantic-sigil s-database" transform="translate(64 99) scale(0.6875)">
            <ellipse cx="8" cy="4" rx="5" ry="2"/>
            <path d="M3 4v8c0 1.1 2.2 2 5 2s5-.9 5-2V4M3 8c0 1.1 2.2 2 5 2s5-.9 5-2"/>
          </g>
          <text data-node-label="" data-detail-anchor="" x="143" y="114" class="t-primary" font-size="11" font-weight="600" text-anchor="middle">Координаты лидара</text>
          <text data-detail="context" x="143" y="131" class="t-muted" font-size="8" text-anchor="middle">допущение</text>
        </g>

        <g id="node-rail_axis" data-node-id="rail_axis" data-node-label="Ось пути" tabindex="0" role="button" aria-label="Focus Ось пути, между рельсами, Путь › Допущение" aria-pressed="false" data-node-kind="backend" data-node-sublabel="между рельсами" data-node-context="Путь › Допущение">
          <title>Ось пути · между рельсами · Путь › Допущение</title>
          <rect x="193" y="217" width="140" height="52" rx="6" class="c-mask"/>
          <rect x="193" y="217" width="140" height="52" rx="6" class="c-backend" stroke-width="1.5"/>
          <g aria-hidden="true" data-semantic-sigil="backend" class="semantic-sigil s-backend" transform="translate(199 223) scale(0.6875)">
            <path d="M6 3 3 8l3 5M10 3l3 5-3 5"/>
          </g>
          <text data-node-label="" data-detail-anchor="" x="263" y="238" class="t-primary" font-size="11" font-weight="600" text-anchor="middle">Ось пути</text>
          <text data-detail="context" x="263" y="255" class="t-muted" font-size="8" text-anchor="middle">между рельсами</text>
        </g>

        <g id="node-section" data-node-id="section" data-node-label="Сечение" tabindex="0" role="button" aria-label="Focus Сечение, форма зоны, Путь › Контур" aria-pressed="false" data-node-kind="backend" data-node-sublabel="форма зоны" data-node-context="Путь › Контур">
          <title>Сечение · форма зоны · Путь › Контур</title>
          <rect x="361" y="217" width="180" height="52" rx="6" class="c-mask"/>
          <rect x="361" y="217" width="180" height="52" rx="6" class="c-backend" stroke-width="1.5"/>
          <g aria-hidden="true" data-semantic-sigil="backend" class="semantic-sigil s-backend" transform="translate(367 223) scale(0.6875)">
            <path d="M6 3 3 8l3 5M10 3l3 5-3 5"/>
          </g>
          <text data-node-label="" data-detail-anchor="" x="451" y="238" class="t-primary" font-size="11" font-weight="600" text-anchor="middle">Сечение</text>
          <text data-detail="context" x="451" y="255" class="t-muted" font-size="8" text-anchor="middle">форма зоны</text>
        </g>

        <g id="node-inside" data-node-id="inside" data-node-label="Внутри габарита" tabindex="0" role="button" aria-label="Focus Внутри габарита, опасная зона, Зоны › Контур" aria-pressed="false" data-node-kind="security" data-node-sublabel="опасная зона" data-node-context="Зоны › Контур">
          <title>Внутри габарита · опасная зона · Зоны › Контур</title>
          <rect x="486" y="341" width="170" height="52" rx="6" class="c-mask"/>
          <rect x="486" y="341" width="170" height="52" rx="6" class="c-security" stroke-width="1.5"/>
          <g aria-hidden="true" data-semantic-sigil="security" class="semantic-sigil s-security" transform="translate(492 347) scale(0.6875)">
            <path d="M8 2.2 13 4v3.5c0 3.1-1.8 5.4-5 6.5-3.2-1.1-5-3.4-5-6.5V4Z"/>
            <path d="m5.8 8 1.5 1.5 3-3"/>
          </g>
          <text data-node-label="" data-detail-anchor="" x="571" y="362" class="t-primary" font-size="11" font-weight="600" text-anchor="middle">Внутри габарита</text>
          <text data-detail="context" x="571" y="379" class="t-muted" font-size="8" text-anchor="middle">опасная зона</text>
        </g>

        <g id="node-warning" data-node-id="warning" data-node-label="Рядом с габаритом" tabindex="0" role="button" aria-label="Focus Рядом с габаритом, предупреждение, Зоны › Интерпретация" aria-pressed="false" data-node-kind="external" data-node-sublabel="предупреждение" data-node-context="Зоны › Интерпретация">
          <title>Рядом с габаритом · предупреждение · Зоны › Интерпретация</title>
          <rect x="664" y="341" width="190" height="52" rx="6" class="c-mask"/>
          <rect x="664" y="341" width="190" height="52" rx="6" class="c-external" stroke-width="1.5"/>
          <g aria-hidden="true" data-semantic-sigil="external" class="semantic-sigil s-external" transform="translate(670 347) scale(0.6875)">
            <rect x="2.5" y="5" width="8.5" height="8" rx="1.5"/>
            <path d="M8 2.5h5.5V8M13.5 2.5 7.5 8.5"/>
          </g>
          <text data-node-label="" data-detail-anchor="" x="759" y="362" class="t-primary" font-size="11" font-weight="600" text-anchor="middle">Рядом с габаритом</text>
          <text data-detail="context" x="759" y="379" class="t-muted" font-size="8" text-anchor="middle">предупреждение</text>
        </g>

        <g id="node-rules" data-node-id="rules" data-node-label="Правила решения" tabindex="0" role="button" aria-label="Focus Правила решения, три исхода, Решение › Интерпретация" aria-pressed="false" data-node-kind="security" data-node-sublabel="три исхода" data-node-context="Решение › Интерпретация">
          <title>Правила решения · три исхода · Решение › Интерпретация</title>
          <rect x="669" y="465" width="180" height="52" rx="6" class="c-mask"/>
          <rect x="669" y="465" width="180" height="52" rx="6" class="c-security" stroke-width="1.5"/>
          <g aria-hidden="true" data-semantic-sigil="security" class="semantic-sigil s-security" transform="translate(675 471) scale(0.6875)">
            <path d="M8 2.2 13 4v3.5c0 3.1-1.8 5.4-5 6.5-3.2-1.1-5-3.4-5-6.5V4Z"/>
            <path d="m5.8 8 1.5 1.5 3-3"/>
          </g>
          <text data-node-label="" data-detail-anchor="" x="759" y="486" class="t-primary" font-size="11" font-weight="600" text-anchor="middle">Правила решения</text>
          <text data-detail="context" x="759" y="503" class="t-muted" font-size="8" text-anchor="middle">три исхода</text>
        </g>

        <g id="node-outcome" data-node-id="outcome" data-node-label="Итог" tabindex="0" role="button" aria-label="Focus Итог, кандидат, warning или unknown, Решение › Интерпретация" aria-pressed="false" data-node-kind="frontend" data-node-sublabel="кандидат, warning или unknown" data-node-context="Решение › Интерпретация">
          <title>Итог · кандидат, warning или unknown · Решение › Интерпретация</title>
          <rect x="877" y="465" width="210" height="52" rx="6" class="c-mask"/>
          <rect x="877" y="465" width="210" height="52" rx="6" class="c-frontend" stroke-width="1.5"/>
          <g aria-hidden="true" data-semantic-sigil="frontend" class="semantic-sigil s-frontend" transform="translate(883 471) scale(0.6875)">
            <rect x="2" y="3" width="12" height="10" rx="2"/>
            <path d="M2 6.5h12"/>
            <circle cx="4.1" cy="4.8" r=".7" class="sigil-fill"/>
            <circle cx="6.3" cy="4.8" r=".7" class="sigil-fill"/>
          </g>
          <text data-node-label="" data-detail-anchor="" x="982" y="486" class="t-primary" font-size="11" font-weight="600" text-anchor="middle">Итог</text>
          <text data-detail="context" x="982" y="503" class="t-muted" font-size="8" text-anchor="middle">кандидат, warning или unknown</text>
        </g>

        <g id="node-calibration" data-node-id="calibration" data-node-label="Нет калибровки" tabindex="0" role="button" aria-label="Focus Нет калибровки, ещё не VERIFIED, Ограничения › Допущение" aria-pressed="false" data-node-kind="security" data-node-sublabel="ещё не VERIFIED" data-node-context="Ограничения › Допущение">
          <title>Нет калибровки · ещё не VERIFIED · Ограничения › Допущение</title>
          <rect x="48" y="589" width="190" height="52" rx="6" class="c-mask"/>
          <rect x="48" y="589" width="190" height="52" rx="6" class="c-security" stroke-width="1.5"/>
          <g aria-hidden="true" data-semantic-sigil="security" class="semantic-sigil s-security" transform="translate(54 595) scale(0.6875)">
            <path d="M8 2.2 13 4v3.5c0 3.1-1.8 5.4-5 6.5-3.2-1.1-5-3.4-5-6.5V4Z"/>
            <path d="m5.8 8 1.5 1.5 3-3"/>
          </g>
          <text data-node-label="" data-detail-anchor="" x="143" y="610" class="t-primary" font-size="11" font-weight="600" text-anchor="middle">Нет калибровки</text>
          <text data-detail="context" x="143" y="627" class="t-muted" font-size="8" text-anchor="middle">ещё не VERIFIED</text>
        </g>

        <g id="node-no_clear" data-node-id="no_clear" data-node-label="Нет CLEAR" tabindex="0" role="button" aria-label="Focus Нет CLEAR, без калибровки, Ограничения › Интерпретация" aria-pressed="false" data-node-kind="security" data-node-sublabel="без калибровки" data-node-context="Ограничения › Интерпретация">
          <title>Нет CLEAR · без калибровки · Ограничения › Интерпретация</title>
          <rect x="887" y="589" width="190" height="52" rx="6" class="c-mask"/>
          <rect x="887" y="589" width="190" height="52" rx="6" class="c-security" stroke-width="1.5"/>
          <g aria-hidden="true" data-semantic-sigil="security" class="semantic-sigil s-security" transform="translate(893 595) scale(0.6875)">
            <path d="M8 2.2 13 4v3.5c0 3.1-1.8 5.4-5 6.5-3.2-1.1-5-3.4-5-6.5V4Z"/>
            <path d="m5.8 8 1.5 1.5 3-3"/>
          </g>
          <text data-node-label="" data-detail-anchor="" x="982" y="610" class="t-primary" font-size="11" font-weight="600" text-anchor="middle">Нет CLEAR</text>
          <text data-detail="context" x="982" y="627" class="t-muted" font-size="8" text-anchor="middle">без калибровки</text>
        </g>

        <!-- Edge labels -->
        <g data-detail="context" data-edge-from="calibration" data-edge-to="no_clear" data-edge-label="ограничивает вывод" data-edge-key="0">
          <rect x="514.3" y="637" width="96.39999999999999" height="14" rx="3" class="c-mask"/>
          <text x="562.5" y="647" class="t-security" font-size="8" text-anchor="middle">ограничивает вывод</text>
        </g>

        <g data-detail="context" data-edge-from="lidar" data-edge-to="calibration" data-edge-label="требует проверки" data-edge-key="2">
          <rect x="151.6" y="332" width="86.8" height="14" rx="3" class="c-mask"/>
          <text x="195" y="342" class="t-security" font-size="8" text-anchor="middle">требует проверки</text>
        </g>

        <g data-detail="context" data-edge-from="no_clear" data-edge-to="outcome" data-edge-label="только candidate-only" data-edge-key="4">
          <rect x="926.6" y="569" width="110.8" height="14" rx="3" class="c-mask"/>
          <text x="982" y="579" class="t-database" font-size="8" text-anchor="middle">только candidate-only</text>
        </g>


        <g data-detail="context" data-edge-from="section" data-edge-to="inside" data-edge-label="опасная зона" data-edge-key="7">
          <rect x="477.2" y="270" width="67.6" height="14" rx="3" class="c-mask"/>
          <text x="511" y="280" class="t-muted" font-size="8" text-anchor="middle">опасная зона</text>
        </g>
        <g data-detail="context" data-edge-from="section" data-edge-to="warning" data-edge-label="запас вокруг" data-edge-key="8">
          <rect x="616.2" y="223" width="67.6" height="14" rx="3" class="c-mask"/>
          <text x="650" y="233" class="t-muted" font-size="8" text-anchor="middle">запас вокруг</text>
        </g>


        <!-- Legend -->
        <g data-legend="" data-legend-bridge="">
          <text x="20" y="676" class="t-primary" font-size="12" font-weight="650">Legend</text>
          <g data-legend-semantic-kind="frontend" data-legend-kind="frontend" data-legend-label="User UI" data-legend-x="20" data-legend-baseline="696" data-legend-width="74">
            <rect x="20" y="688" width="14" height="9" rx="2" class="c-frontend" stroke-width="1"/>
            <text x="42" y="696" class="t-muted" font-size="7.5" font-weight="500">User UI</text>
          </g>
          <g data-legend-semantic-kind="backend" data-legend-kind="backend" data-legend-label="Agent logic" data-legend-x="101" data-legend-baseline="696" data-legend-width="91">
            <rect x="101" y="688" width="14" height="9" rx="2" class="c-backend" stroke-width="1"/>
            <text x="123" y="696" class="t-muted" font-size="7.5" font-weight="500">Agent logic</text>
          </g>
          <g data-legend-semantic-kind="security" data-legend-kind="security" data-legend-label="Policy" data-legend-x="199" data-legend-baseline="696" data-legend-width="70">
            <rect x="199" y="688" width="14" height="9" rx="2" class="c-security" stroke-width="1"/>
            <text x="221" y="696" class="t-muted" font-size="7.5" font-weight="500">Policy</text>
          </g>
          <g data-legend-semantic-kind="database" data-legend-kind="database" data-legend-label="Context / trace" data-legend-x="276" data-legend-baseline="696" data-legend-width="109">
            <rect x="276" y="688" width="14" height="9" rx="2" class="c-database" stroke-width="1"/>
            <text x="298" y="696" class="t-muted" font-size="7.5" font-weight="500">Context / trace</text>
          </g>
          <g data-legend-semantic-kind="external" data-legend-kind="external" data-legend-label="External system" data-legend-x="392" data-legend-baseline="696" data-legend-width="109">
            <rect x="392" y="688" width="14" height="9" rx="2" class="c-external" stroke-width="1"/>
            <text x="414" y="696" class="t-muted" font-size="7.5" font-weight="500">External system</text>
          </g>
        </g>
      </svg>
